<svg width="64" height="64" viewBox="0 0 64 64" fill="none" xmlns="http://www.w3.org/2000/svg">
<path fill-rule="evenodd" clip-rule="evenodd" d="M12 0C5.37258 0 0 5.37258 0 12V52C0 58.6274 5.37258 64 12 64H52C58.6274 64 64 58.6274 64 52V12C64 5.37258 58.6274 0 52 0H12ZM13.8783 41.1132C9.70971 41.1132 6.33044 44.4925 6.33044 48.661C6.33044 52.8296 9.70972 56.2088 13.8783 56.2088H50.0522C54.2207 56.2088 57.6 52.8296 57.6 48.661C57.6 44.4925 54.2207 41.1132 50.0522 41.1132H13.8783Z" fill="#00D492"/>
</svg>