<svg xmlns="http://www.w3.org/2000/svg" viewBox="0 0 128 128" fill="none">
  <circle cx="64" cy="64" r="56" fill="#10b981"/>
  <path d="M64 32c-8.8 0-16 7.2-16 16 0 1.4.2 2.8.5 4.1-3.7 1.7-6.5 5.2-6.5 9.4 0 5.5 4.5 10 10 10h1v12c0 5.5 4.5 10 10 10h2c5.5 0 10-4.5 10-10V71h1c5.5 0 10-4.5 10-10 0-4.2-2.8-7.7-6.5-9.4.3-1.3.5-2.7.5-4.1 0-8.8-7.2-16-16-16zm-7 24c-1.7 0-3-1.3-3-3s1.3-3 3-3 3 1.3 3 3-1.3 3-3 3zm14 0c-1.7 0-3-1.3-3-3s1.3-3 3-3 3 1.3 3 3-1.3 3-3 3z" fill="white"/>
  <circle cx="48" cy="90" r="3" fill="white" opacity="0.3"/>
  <circle cx="80" cy="90" r="3" fill="white" opacity="0.3"/>
  <circle cx="64" cy="100" r="3" fill="white" opacity="0.3"/>
  <circle cx="44" cy="40" r="2" fill="white" opacity="0.3"/>
  <circle cx="84" cy="40" r="2" fill="white" opacity="0.3"/>
</svg>